<svg width="19" height="14" viewBox="0 0 19 14" fill="none" xmlns="http://www.w3.org/2000/svg">
	<path d="M7.71736 1.8868C8.14545 1.45518 8.14545 0.75535 7.71736 0.323721C7.28928 -0.107907 6.59534 -0.107907 6.16721 0.323721L0.321056 6.21852C0.107014 6.43427 0 6.71722 0 7.00002C0 7.14989 0.0295816 7.29284 0.0831762 7.42311C0.136669 7.55339 0.215957 7.67556 0.321056 7.78151L6.16721 13.6763C6.59534 14.1079 7.28928 14.1079 7.71736 13.6763C8.14545 13.2446 8.14545 12.5449 7.71736 12.1133L3.7425 8.10528H17.9038C18.5092 8.10528 19 7.61042 19 7.00002C19 6.38961 18.5092 5.89475 17.9038 5.89475H3.7425L7.71736 1.8868Z" fill="#404955" />
</svg>
