<svg width="64" height="60" viewBox="0 0 64 60" fill="none" xmlns="http://www.w3.org/2000/svg">
	<path d="M59.4288 39.1481C57.7328 39.1481 56.3196 40.2081 55.7542 41.6214L37.3815 37.9468C37.3815 37.8055 37.3815 37.7348 37.3815 37.5935C37.3815 37.0988 37.3108 36.6042 37.1695 36.1095L47.0625 31.799C48.0518 33.4243 49.8184 34.5549 51.8677 34.5549C54.9769 34.5549 57.5209 32.011 57.5209 28.9018C57.5209 26.6405 56.1782 24.6619 54.1996 23.8139L55.5423 19.2207C55.6836 19.2207 55.8249 19.2914 55.9662 19.2914C56.6729 19.2914 57.3795 19.0087 57.8742 18.5141C59.0048 17.4541 59.0755 15.6875 58.0155 14.5569C57.5209 13.9916 56.7435 13.7089 55.9662 13.7089C55.2596 13.7089 54.5529 13.9916 54.0583 14.4862C53.493 14.9809 53.2103 15.6875 53.2103 16.4648C53.2103 17.2421 53.4223 17.9488 53.9876 18.4434C54.2703 18.7261 54.553 18.9381 54.9063 19.0794L53.6343 23.6019C53.069 23.4606 52.5037 23.3193 51.9384 23.3193C50.3837 23.3193 48.9705 23.9552 47.9812 24.9445L46.5679 23.5313C47.7692 22.0473 47.7692 19.8567 46.4265 18.4434C45.7199 17.6661 44.6599 17.2421 43.6 17.2421C42.6107 17.2421 41.692 17.5954 40.9854 18.3021C40.5614 18.7261 40.2081 19.2207 39.9961 19.786L34.0603 18.7967L34.8376 7.63176C36.7455 7.41977 38.2295 5.79448 38.2295 3.81588C38.2295 1.69595 36.5335 0 34.4136 0C32.2937 0 30.5977 1.69595 30.5977 3.81588C30.5977 5.58249 31.799 7.13711 33.4949 7.5611L32.7176 18.5847L23.2486 16.8888C23.1779 16.2528 22.9659 15.6875 22.542 15.1929C22.0473 14.6275 21.27 14.3449 20.4927 14.3449C19.9274 14.3449 19.3621 14.5569 18.8674 14.8395L14.2036 9.75169C14.6275 9.25704 14.9102 8.62106 14.9102 7.98508C14.9102 6.43046 13.6382 5.1585 12.0836 5.1585C10.529 5.1585 9.25704 6.43046 9.25704 7.98508C9.25704 9.5397 10.529 10.8117 12.0836 10.8117C12.7196 10.8117 13.2143 10.5997 13.7089 10.317L18.3728 15.4048C17.5248 16.4648 17.4541 17.9488 18.3728 19.0087L14.0622 25.9338C13.4262 25.6512 12.7196 25.5099 12.013 25.5099C10.741 25.5099 9.46904 26.0045 8.5504 26.8525C8.3384 27.0645 8.12641 27.2765 7.98508 27.4885L5.3705 25.7925C5.58249 25.4392 5.65316 25.0152 5.65316 24.5912C5.65316 23.0366 4.3812 21.7646 2.82658 21.7646C1.27196 21.7646 0 23.0366 0 24.5912C0 26.1458 1.27196 27.4178 2.82658 27.4178C3.67455 27.4178 4.45186 26.9938 4.94651 26.4285L7.5611 28.1244C6.50113 29.9617 6.78379 32.435 8.26774 34.0603C8.47973 34.2722 8.62106 34.4136 8.83306 34.5549L6.57179 37.7348C6.07714 37.5228 5.51183 37.3815 4.94651 37.3815C2.82658 37.3815 1.05997 39.0774 1.05997 41.268C1.05997 43.4586 2.75591 45.1546 4.94651 45.1546C7.13711 45.1546 8.83306 43.4586 8.83306 41.268C8.83306 40.2787 8.40907 39.2894 7.77309 38.6534L10.1757 35.4029C10.741 35.6149 11.377 35.7562 12.0836 35.7562C12.9316 35.7562 13.7796 35.5442 14.4862 35.1202L19.786 43.176C19.1501 43.6706 18.7967 44.4479 18.7967 45.2959C18.7967 46.8505 20.0687 48.1225 21.6233 48.1225C23.1779 48.1225 24.4499 46.8505 24.4499 45.2959C24.4499 43.7413 23.1779 42.4693 21.6233 42.4693C21.1993 42.4693 20.7753 42.6107 20.422 42.752L15.1222 34.5549C15.2635 34.4136 15.4048 34.3429 15.5462 34.2016C17.5954 32.2936 17.6661 29.1138 15.7582 27.0645C15.6168 26.9232 15.4755 26.7818 15.2635 26.6405L19.5034 19.7154C19.786 19.8567 20.1394 19.9274 20.422 19.9274C21.1287 19.9274 21.8353 19.6447 22.33 19.1501C22.6126 18.8674 22.8246 18.5847 22.9659 18.3021L32.435 19.9274L31.7283 32.223C30.5977 32.2936 29.6084 32.7176 28.7604 33.3536L27.4178 31.8697C27.8418 31.375 28.1245 30.739 28.1245 30.0324C28.1245 28.4778 26.8525 27.2058 25.2979 27.2058C23.7433 27.2058 22.4713 28.4778 22.4713 30.0324C22.4713 31.587 23.7433 32.859 25.2979 32.859C25.8632 32.859 26.4285 32.647 26.9232 32.3643L28.2658 33.8483C27.3471 34.8376 26.7818 36.1095 26.7818 37.5935C26.7818 40.4907 29.0431 42.8226 31.8697 42.964L32.0817 51.585C30.1737 51.797 28.6898 53.4223 28.6898 55.4009C28.6898 57.5209 30.3857 59.2168 32.5056 59.2168C34.6256 59.2168 36.3215 57.5209 36.3215 55.4009C36.3215 53.3517 34.7669 51.7264 32.7176 51.585L32.5056 42.964C34.6256 42.752 36.3922 41.3387 37.0988 39.3601L55.4716 43.0346V43.1053C55.4716 45.2959 57.2382 47.0625 59.4288 47.0625C61.6194 47.0625 63.386 45.2959 63.386 43.1053C63.386 40.9147 61.5487 39.1481 59.4288 39.1481ZM55.0476 15.4048C55.3303 15.1929 55.6129 15.0515 55.9662 15.0515C56.3196 15.0515 56.7435 15.1929 56.9555 15.4755C57.4502 16.0408 57.4502 16.8888 56.8849 17.4541C56.3196 17.9488 55.4009 17.9488 54.9063 17.3835C54.6236 17.1008 54.553 16.7475 54.553 16.3941C54.553 16.0408 54.7649 15.6168 55.0476 15.4048ZM2.89724 26.0045C2.11993 26.0045 1.48395 25.3685 1.48395 24.5912C1.48395 23.8139 2.11993 23.1779 2.89724 23.1779C3.67455 23.1779 4.31053 23.8139 4.31053 24.5912C4.31053 25.3685 3.67455 26.0045 2.89724 26.0045ZM5.01718 43.6C3.67455 43.6 2.54392 42.4693 2.54392 41.1267C2.54392 39.7841 3.67455 38.6534 5.01718 38.6534C6.3598 38.6534 7.49043 39.7841 7.49043 41.1267C7.49043 42.4693 6.3598 43.6 5.01718 43.6ZM22.9659 45.3666C22.9659 46.1439 22.33 46.7799 21.5527 46.7799C20.7753 46.7799 20.1394 46.1439 20.1394 45.3666C20.1394 44.5893 20.7753 43.9533 21.5527 43.9533C22.33 43.9533 22.9659 44.5893 22.9659 45.3666ZM14.5569 33.2123C13.8502 33.8483 13.0023 34.2016 12.0836 34.2016C11.0943 34.2016 10.105 33.7776 9.39837 33.071C8.05575 31.587 8.12641 29.3257 9.5397 27.9125C10.2463 27.2765 11.0943 26.9231 12.013 26.9231C13.0023 26.9231 13.9916 27.3471 14.6982 28.0538C16.1115 29.5377 16.0408 31.8697 14.5569 33.2123ZM12.0836 9.32771C11.3063 9.32771 10.6703 8.69173 10.6703 7.91442C10.6703 7.13711 11.3063 6.50113 12.0836 6.50113C12.8609 6.50113 13.4969 7.13711 13.4969 7.91442C13.4262 8.69173 12.8609 9.32771 12.0836 9.32771ZM21.482 18.1608C20.9167 18.6554 19.998 18.6554 19.5034 18.0901C19.0087 17.5248 19.0087 16.6768 19.574 16.1115C19.8567 15.8995 20.1394 15.7582 20.4927 15.7582C20.846 15.7582 21.27 15.8995 21.482 16.1822C22.0473 16.7475 21.9766 17.5954 21.482 18.1608ZM51.8677 24.6619C54.1996 24.6619 56.1076 26.5698 56.1076 28.9018C56.1076 31.2337 54.1996 33.1416 51.8677 33.1416C49.5358 33.1416 47.6278 31.2337 47.6278 28.9018C47.6278 26.5698 49.5358 24.6619 51.8677 24.6619ZM41.904 19.2914C42.328 18.8674 42.964 18.6554 43.6 18.6554C44.3066 18.6554 44.9426 18.9381 45.3666 19.4327C46.2852 20.422 46.2145 21.9766 45.2252 22.8953C44.8013 23.3193 44.1653 23.5313 43.5293 23.5313C42.8227 23.5313 42.1867 23.2486 41.7627 22.7539C40.844 21.694 40.9147 20.21 41.904 19.2914ZM39.7134 21.1287C39.7134 22.0473 40.0667 22.9659 40.7734 23.6726C41.48 24.4499 42.54 24.8739 43.6 24.8739C44.5186 24.8739 45.3666 24.5206 46.0732 23.9552L47.4865 25.3685C46.7799 26.2872 46.2852 27.4885 46.2852 28.8311C46.2852 29.3964 46.3559 29.8911 46.4972 30.4564L36.6042 34.7669C35.8269 33.4949 34.5549 32.5763 33.071 32.2936L33.9189 20.0687L39.7134 21.1287ZM31.8697 3.67455C31.8697 2.33193 32.9296 1.27196 34.2723 1.27196C35.6149 1.27196 36.6748 2.33193 36.6748 3.67455C36.6748 5.01718 35.6149 6.07714 34.2723 6.07714C32.9296 6.07714 31.8697 5.01718 31.8697 3.67455ZM25.2979 31.4457C24.5206 31.4457 23.8846 30.8097 23.8846 30.0324C23.8846 29.2551 24.5206 28.6191 25.2979 28.6191C26.0752 28.6191 26.7112 29.2551 26.7112 30.0324C26.7112 30.8097 26.0752 31.4457 25.2979 31.4457ZM34.9082 55.4009C34.9082 56.7435 33.8483 57.8035 32.5056 57.8035C31.163 57.8035 30.1031 56.7435 30.1031 55.4009C30.1031 54.0583 31.163 52.9983 32.5056 52.9983C33.8483 52.9983 34.9082 54.0583 34.9082 55.4009ZM32.0817 41.48C29.8911 41.48 28.1245 39.7134 28.1245 37.5228C28.1245 35.3322 29.8911 33.5656 32.0817 33.5656C34.2723 33.5656 35.9682 35.4029 35.9682 37.5935C35.9682 39.7841 34.2016 41.48 32.0817 41.48ZM59.4288 45.5786C58.0155 45.5786 56.8849 44.4479 56.8849 43.0346C56.8849 41.6214 58.0155 40.4907 59.4288 40.4907C60.8421 40.4907 61.9727 41.6214 61.9727 43.0346C61.9727 44.4479 60.7714 45.5786 59.4288 45.5786Z" fill="url(#paint0_linear_877_2340)" />
	<defs>
		<linearGradient id="paint0_linear_877_2340" x1="0" y1="0" x2="63.386" y2="59.2168" gradientUnits="userSpaceOnUse">
			<stop stop-color="#7D141D" />
			<stop offset="1" stop-color="#FF1E27" />
		</linearGradient>
	</defs>
</svg>
