<svg width="101" height="20" viewBox="0 0 101 20" fill="none" xmlns="http://www.w3.org/2000/svg">
<path d="M8.04 19.312C6.68 19.312 5.464 19.04 4.392 18.496C3.336 17.936 2.504 17.152 1.896 16.144C1.288 15.12 0.984 13.912 0.984 12.52V2.2H6V12.52C6 13 6.08 13.416 6.24 13.768C6.416 14.12 6.656 14.4 6.96 14.608C7.264 14.8 7.624 14.896 8.04 14.896C8.456 14.896 8.816 14.8 9.12 14.608C9.424 14.4 9.656 14.12 9.816 13.768C9.992 13.416 10.08 13 10.08 12.52V2.2H15.144V12.52C15.144 13 15.224 13.416 15.384 13.768C15.544 14.12 15.776 14.4 16.08 14.608C16.4 14.8 16.768 14.896 17.184 14.896C17.6 14.896 17.96 14.8 18.264 14.608C18.568 14.4 18.8 14.12 18.96 13.768C19.136 13.416 19.224 13 19.224 12.52V2.2H24.216V12.52C24.216 13.912 23.912 15.12 23.304 16.144C22.712 17.152 21.888 17.936 20.832 18.496C19.776 19.04 18.56 19.312 17.184 19.312C16.56 19.312 15.968 19.248 15.408 19.12C14.864 18.992 14.352 18.808 13.872 18.568C13.408 18.328 12.984 18.032 12.6 17.68C12.216 18.016 11.784 18.312 11.304 18.568C10.84 18.808 10.336 18.992 9.792 19.12C9.248 19.248 8.664 19.312 8.04 19.312ZM26.2273 19V6.568H30.8353V19H26.2273ZM28.5313 5.296C27.8593 5.296 27.2833 5.056 26.8033 4.576C26.3233 4.08 26.0833 3.504 26.0833 2.848C26.0833 2.176 26.3233 1.6 26.8033 1.12C27.2833 0.623999 27.8593 0.375999 28.5313 0.375999C29.2033 0.375999 29.7793 0.623999 30.2593 1.12C30.7393 1.6 30.9793 2.176 30.9793 2.848C30.9793 3.504 30.7393 4.08 30.2593 4.576C29.7793 5.056 29.2033 5.296 28.5313 5.296ZM39.5076 19.312C38.4676 19.312 37.5236 19.152 36.6756 18.832C35.8436 18.512 35.1236 18.056 34.5156 17.464C33.9076 16.856 33.4356 16.144 33.0996 15.328C32.7796 14.512 32.6196 13.608 32.6196 12.616C32.6196 11.336 32.8836 10.224 33.4116 9.28C33.9396 8.336 34.6436 7.6 35.5236 7.072C36.4196 6.544 37.4196 6.28 38.5236 6.28C38.9716 6.28 39.3796 6.328 39.7476 6.424C40.1316 6.504 40.4836 6.64 40.8036 6.832C41.1236 7.024 41.4036 7.264 41.6436 7.552H41.7876V1.48H46.3956V12.568C46.3956 13.928 46.1076 15.112 45.5316 16.12C44.9556 17.128 44.1476 17.912 43.1076 18.472C42.0836 19.032 40.8836 19.312 39.5076 19.312ZM39.5076 15.28C39.9396 15.28 40.3156 15.176 40.6356 14.968C40.9716 14.76 41.2276 14.472 41.4036 14.104C41.5956 13.72 41.6916 13.288 41.6916 12.808C41.6916 12.344 41.5956 11.936 41.4036 11.584C41.2276 11.232 40.9716 10.952 40.6356 10.744C40.3156 10.536 39.9396 10.432 39.5076 10.432C39.0916 10.432 38.7156 10.536 38.3796 10.744C38.0436 10.952 37.7796 11.232 37.5876 11.584C37.4116 11.936 37.3236 12.344 37.3236 12.808C37.3236 13.288 37.4116 13.72 37.5876 14.104C37.7796 14.472 38.0436 14.76 38.3796 14.968C38.7156 15.176 39.0916 15.28 39.5076 15.28ZM55.3826 19C53.9906 19 52.7506 18.76 51.6626 18.28C50.5746 17.8 49.7106 17.104 49.0706 16.192C48.4466 15.264 48.1346 14.136 48.1346 12.808C48.1346 11.352 48.4466 10.144 49.0706 9.184C49.6946 8.224 50.5026 7.504 51.4946 7.024C52.5026 6.528 53.5586 6.28 54.6626 6.28C55.7986 6.28 56.8146 6.52 57.7106 7C58.6226 7.464 59.3426 8.136 59.8706 9.016C60.4146 9.896 60.6866 10.952 60.6866 12.184C60.6866 12.488 60.6706 12.84 60.6386 13.24C60.6066 13.624 60.5586 13.952 60.4946 14.224H52.8626C52.9266 14.496 53.0466 14.728 53.2226 14.92C53.3986 15.096 53.6386 15.224 53.9426 15.304C54.2466 15.384 54.5906 15.424 54.9746 15.424H59.4146V19H55.3826ZM52.6466 11.68H56.4386C56.4386 11.488 56.4146 11.304 56.3666 11.128C56.3186 10.952 56.2386 10.792 56.1266 10.648C56.0306 10.488 55.9106 10.352 55.7666 10.24C55.6226 10.112 55.4466 10.016 55.2386 9.952C55.0466 9.888 54.8306 9.856 54.5906 9.856C54.2866 9.856 54.0146 9.904 53.7746 10C53.5506 10.096 53.3586 10.224 53.1986 10.384C53.0386 10.544 52.9106 10.736 52.8146 10.96C52.7346 11.184 52.6786 11.424 52.6466 11.68ZM62.4137 19V10.432C62.4137 9.248 62.7577 8.312 63.4457 7.624C64.1337 6.936 65.0937 6.592 66.3257 6.592H70.3097V10.072H67.9337C67.6617 10.072 67.4377 10.16 67.2617 10.336C67.1017 10.496 67.0217 10.712 67.0217 10.984V19H62.4137ZM70.6406 19L76.0166 4.312C76.3206 3.512 76.8166 2.912 77.5046 2.512C78.2086 2.096 79.0006 1.888 79.8806 1.888C80.7606 1.888 81.5446 2.088 82.2326 2.488C82.9366 2.888 83.4406 3.488 83.7446 4.288L89.1206 19H83.6246L82.7126 16.072H76.9766L76.0166 19H70.6406ZM78.0566 12.112H81.6326L80.0726 6.712C80.0566 6.664 80.0326 6.632 80.0006 6.616C79.9686 6.584 79.9286 6.568 79.8806 6.568C79.8486 6.568 79.8166 6.584 79.7846 6.616C79.7526 6.632 79.7286 6.664 79.7126 6.712L78.0566 12.112ZM89.8774 19V14.944H92.4934V6.256H89.8774V2.2H100.317V6.256H97.6774V14.944H100.317V19H89.8774Z" fill="url(#paint0_linear_158_23)"/>
<defs>
<linearGradient id="paint0_linear_158_23" x1="-13.3442" y1="-0.999999" x2="112.649" y2="23" gradientUnits="userSpaceOnUse">
<stop stop-color="#9492E7"/>
<stop offset="1" stop-color="#42307D"/>
</linearGradient>
</defs>
</svg>
